<svg width="175" height="53" fill="none" xmlns="http://www.w3.org/2000/svg"><path d="M51.928 18.069c.14-.844 1.272-6.477-.334-6.616-9.264-.806-15.474 14.66-14.97 22.397.333 5.097 2.87 13.168 9.322 12.646 3.058-.247 6.372-2.381 8.21-4.763 1.737-2.25 5.457-8.983 4.504-10.39-.6-.887-1.962 10.983 1.785 12.04 3.748 1.055 5.244-1.686 6.91-4.423 2.273-3.736 2.876-9.925-1.077-11.147-4.17-1.29-5.52.68-6.5 2.03m11.774 4.783c8.561-6.305 13.92-33.245 12.265-33.606-5.015-1.093-12.784 44.522-2.221 37.48 5.651-3.768 21.337-37.48 17.859-37.48-9.068 0-12.879 36.005-6.44 36.032 6.44.027 11.775-18.37 11.775-18.37s-5.58 15.72 1.472 15.944c7.052.225 9.067-12.336 12.019-18.588.737-1.56.09 3.486-.306 5.165-.829 3.506-1.614 6.95-2.024 10.54-.068.596-.354 1.637-.368.376-.069-6.198 4.265-13 10.425-14.711 1.62-.45-.208 13.276 1.088 14.336 1.813 1.483 2.971-2.101 4-3.244m24.47-6.226c2.156-1.92 7.223-4.428 5.267-7.658-1.955-3.231-1.097 15.297-1.097 15.297v-.511c0-.91.144-1.708.409-2.576 1.241-4.068 2.553-7.759 6.187-10.316 2.424-1.706 2.589 13.09 3.543 13.069 1.967-.044 2.582-2.487 3.721-3.625m-40.229-.236c.735-.928 8.22-12.49 5.281-11.46-4.752 1.663-.218 8.915 1.226 11.297 1.051 1.734 2.671 7.675-1.478 5.71-1.554-.736 3.256-3.766 4.953-5.894 1.777-2.229 2.037-6.218 2.037-2.412 0 2.962-.41 6.807 3.441 6.807 2.921 0 5.406-3.597 6.181-6.133 1.9-6.22-4.04-11.649-8.027-5.669m-39.885-5.214c1.41-3.24 3.64-6.901 4-10.5M17.1 25.955c3.496-3.955 3.472-7.873 0-8.455C5.595 15.572-2.905 45 6.595 50c4.973 2.617 9.412-.768 11.223-2.198m8.778-3.052c0 1.834-.495 4.342.5 6" opacity=".5" stroke="#fff" stroke-linecap="round" stroke-linejoin="round"/></svg>