<svg width="70" height="70" fill="none" xmlns="http://www.w3.org/2000/svg"><path d="M50.343 0H19.656a4.318 4.318 0 00-4.313 4.313v61.374A4.318 4.318 0 0019.657 70h30.686a4.318 4.318 0 004.314-4.313V4.313A4.318 4.318 0 0050.343 0zm2.263 65.687a2.265 2.265 0 01-2.263 2.262H19.656a2.265 2.265 0 01-2.262-2.262V4.313a2.265 2.265 0 012.263-2.262h30.686a2.265 2.265 0 012.263 2.262v61.374z" fill="#3BC6CF"/><path d="M49.248 59.182H20.753a1.025 1.025 0 100 2.05h28.495a1.025 1.025 0 000-2.05zm0-54.798H20.753a1.025 1.025 0 100 2.05h28.495a1.025 1.025 0 100-2.05zM36.096 63.566h-2.192a1.025 1.025 0 100 2.05h2.192a1.025 1.025 0 100-2.05zm10.776-17.798l-1.992-21.92a2.111 2.111 0 00-2.113-1.929h-3.454v-1.166A4.318 4.318 0 0035 16.439a4.318 4.318 0 00-4.313 4.314v1.166h-3.454c-1.104 0-2.012.83-2.112 1.93l-1.993 21.919a2.126 2.126 0 00.546 1.622c.401.44.972.691 1.567.691H44.76a2.13 2.13 0 001.566-.69c.401-.44.6-1.031.546-1.623zM35 18.49a2.265 2.265 0 012.263 2.263v1.166h-4.526v-1.166A2.265 2.265 0 0135 18.49zm9.812 27.517c-.021.023-.044.023-.052.023H25.24c-.008 0-.03 0-.051-.023a.066.066 0 01-.019-.054l1.993-21.919a.07.07 0 01.07-.064h3.454v2.263a1.025 1.025 0 102.05 0V23.97h4.526v2.263a1.025 1.025 0 102.05 0V23.97h3.454a.07.07 0 01.07.064l1.993 21.92c0 .008.003.03-.018.053z" fill="#3BC6CF"/></svg>