<svg width="70" height="70" fill="none" xmlns="http://www.w3.org/2000/svg"><path d="M64.873 2.53H5.127A5.133 5.133 0 000 7.655v45.117C0 55.6 2.3 57.9 5.127 57.9H27.01l-1.234 4.32c-.496 1.735-2.439 3.2-4.243 3.2H13.81a1.025 1.025 0 100 2.05h42.38a1.025 1.025 0 100-2.05h-7.724c-1.804 0-3.747-1.466-4.243-3.2L42.99 57.9h21.883C67.7 57.9 70 55.6 70 52.773V7.656c0-2.827-2.3-5.127-5.127-5.127zM5.127 4.58h59.746a3.08 3.08 0 013.076 3.076v35.889H2.051V7.656A3.08 3.08 0 015.127 4.58zm37.125 58.203c.282.985.841 1.89 1.574 2.637H26.174c.733-.747 1.292-1.652 1.573-2.637l1.396-4.883h11.714l1.395 4.883zm22.621-6.933H5.127a3.08 3.08 0 01-3.076-3.077v-7.177h65.898v7.177a3.08 3.08 0 01-3.076 3.077z" fill="#2BD195"/><path d="M5.127 41.494h59.746c.566 0 1.025-.459 1.025-1.025V7.656c0-.566-.459-1.025-1.025-1.025H5.127c-.566 0-1.025.459-1.025 1.025v14.356a1.025 1.025 0 102.05 0V8.682h57.696v30.761H6.152v-13.33a1.025 1.025 0 10-2.05 0V40.47c0 .566.459 1.025 1.025 1.025zM35 47.647a3.08 3.08 0 00-3.076 3.076A3.08 3.08 0 0035 53.799a3.08 3.08 0 003.076-3.076A3.08 3.08 0 0035 47.647zm0 4.101a1.026 1.026 0 010-2.05 1.026 1.026 0 010 2.05z" fill="#2BD195"/></svg>