<svg width="95" height="96" fill="none" xmlns="http://www.w3.org/2000/svg"><circle cx="47.5" cy="48.279" r="40" stroke="#fff" stroke-opacity=".1" stroke-width="15"/><circle cx="47.5" cy="48.279" r="40" stroke="#0E151D" stroke-width="3"/><path fill-rule="evenodd" clip-rule="evenodd" d="M46.5 8.353c0-1.405-1.16-2.543-2.56-2.427C22.134 7.735 5 26.006 5 48.28c0 23.472 19.028 42.5 42.5 42.5S90 71.751 90 48.28c0-17.731-10.859-32.926-26.289-39.298-1.255-.519-2.662.15-3.135 1.422-.489 1.316.207 2.769 1.5 3.315C75.546 19.406 85 32.738 85 48.279c0 20.711-16.79 37.5-37.5 37.5S10 68.99 10 48.28c0-19.552 14.964-35.609 34.064-37.344 1.351-.123 2.436-1.224 2.436-2.582z" fill="#2BD195"/><path d="M34.756 55.62h.78a3.55 3.55 0 001.68-.4 3.12 3.12 0 001.22-1.24c.307-.547.46-1.213.46-2v-1.82c-.733.76-1.667 1.14-2.8 1.14a4.24 4.24 0 01-2.14-.56 4.427 4.427 0 01-1.56-1.54 4.24 4.24 0 01-.56-2.14c0-.773.187-1.487.56-2.14a4.216 4.216 0 011.56-1.54 4.126 4.126 0 012.14-.58c.773 0 1.48.193 2.12.58a4.067 4.067 0 011.54 1.54c.387.653.58 1.367.58 2.14v5.16c0 .733-.16 1.467-.48 2.2-.307.72-.827 1.333-1.56 1.84-.72.493-1.667.74-2.84.74h-.7v-1.38zm1.34-5.74c.507 0 .973-.12 1.4-.36a2.82 2.82 0 001.02-1.04c.253-.453.38-.96.38-1.52 0-.493-.127-.947-.38-1.36-.253-.427-.6-.76-1.04-1a2.657 2.657 0 00-1.38-.38c-.52 0-1 .127-1.44.38a2.82 2.82 0 00-1.02 1.04c-.253.44-.38.913-.38 1.42 0 .507.127.98.38 1.42.253.427.593.767 1.02 1.02.44.253.92.38 1.44.38zm11.316-.64c.68.373 1.227.893 1.64 1.56.414.653.62 1.38.62 2.18 0 .773-.193 1.487-.58 2.14a4.215 4.215 0 01-1.54 1.56 4.239 4.239 0 01-2.14.56 4.24 4.24 0 01-2.14-.56 4.374 4.374 0 01-1.56-1.56 4.24 4.24 0 01-.56-2.14c0-.813.207-1.553.62-2.22a4.194 4.194 0 011.66-1.54 3.45 3.45 0 01-1.1-1.22 3.51 3.51 0 01-.4-1.66 3.469 3.469 0 011.74-3.04c.534-.32 1.12-.48 1.76-.48.64 0 1.227.16 1.76.48.547.307.974.733 1.28 1.28.32.533.48 1.12.48 1.76 0 .6-.14 1.153-.42 1.66-.266.507-.64.92-1.12 1.24zm-2.08-.82c.614 0 1.134-.2 1.56-.6.427-.4.64-.893.64-1.48s-.206-1.087-.62-1.5a2.02 2.02 0 00-1.48-.62 2.11 2.11 0 00-1.52.62c-.413.413-.62.913-.62 1.5 0 .573.194 1.06.58 1.46.4.387.887.593 1.46.62zm.08 7.38c.507 0 .974-.127 1.4-.38.44-.253.78-.593 1.02-1.02.254-.44.38-.913.38-1.42 0-.787-.273-1.447-.82-1.98-.533-.547-1.233-.827-2.1-.84a2.61 2.61 0 00-1.92.84c-.52.547-.78 1.207-.78 1.98 0 .507.127.98.38 1.42a2.88 2.88 0 001.02 1.02c.427.253.9.38 1.42.38zm16.456-13.62l1.1.96L51.728 57l-.98-.98 11.12-13.84zm-8.1 6.04c-.52 0-1-.127-1.44-.38a3.101 3.101 0 01-1.06-1.06 2.84 2.84 0 01-.38-1.44c0-.52.127-1 .38-1.44.267-.44.62-.787 1.06-1.04.44-.267.92-.4 1.44-.4.52 0 1 .133 1.44.4.44.253.787.6 1.04 1.04.267.44.4.92.4 1.44 0 .52-.133 1-.4 1.44-.253.44-.6.793-1.04 1.06-.44.253-.92.38-1.44.38zm1.54-2.88c0-.4-.146-.753-.44-1.06-.28-.307-.646-.46-1.1-.46-.453 0-.82.153-1.1.46-.28.307-.42.66-.42 1.06s.14.753.42 1.06c.28.307.647.46 1.1.46.454 0 .82-.153 1.1-.46.294-.307.44-.66.44-1.06zm4.68 11.88c-.52 0-1-.127-1.44-.38a3.101 3.101 0 01-1.06-1.06 2.84 2.84 0 01-.38-1.44c0-.52.127-1 .38-1.44.267-.44.62-.787 1.06-1.04.44-.267.92-.4 1.44-.4.52 0 1 .133 1.44.4.44.253.787.6 1.04 1.04.267.44.4.92.4 1.44 0 .52-.133 1-.4 1.44-.253.44-.6.793-1.04 1.06-.44.253-.92.38-1.44.38zm1.52-2.88c0-.4-.14-.753-.42-1.06-.28-.307-.646-.46-1.1-.46-.453 0-.82.153-1.1.46-.28.307-.42.66-.42 1.06s.14.753.42 1.06c.28.307.647.46 1.1.46.454 0 .82-.153 1.1-.46.28-.307.42-.66.42-1.06z" fill="#9BA3AE"/></svg>