<svg width="95" height="96" fill="none" xmlns="http://www.w3.org/2000/svg"><circle cx="47.5" cy="48.279" r="40" stroke="#fff" stroke-opacity=".1" stroke-width="15"/><circle cx="47.5" cy="48.279" r="40" stroke="#0E151D" stroke-width="3"/><path fill-rule="evenodd" clip-rule="evenodd" d="M46.5 8.353c0-1.405-1.16-2.543-2.56-2.427C22.134 7.735 5 26.006 5 48.28s17.134 40.545 38.94 42.353c1.4.117 2.56-1.021 2.56-2.427 0-1.357-1.085-2.458-2.436-2.58C24.964 83.888 10 67.831 10 48.278c0-19.552 14.964-35.609 34.064-37.344 1.351-.123 2.436-1.224 2.436-2.582z" fill="#fff"/><path d="M31.927 54.44c.627.907 1.454 1.36 2.48 1.36.547 0 1.034-.127 1.46-.38.427-.253.754-.593.98-1.02.24-.44.36-.913.36-1.42a2.66 2.66 0 00-.4-1.44 2.708 2.708 0 00-1.1-1.02 3.217 3.217 0 00-1.56-.38h-2.68l.76-7.14h5.32v1.44h-4l-.46 4.3h1.32a4.12 4.12 0 012.14.58 4.068 4.068 0 011.54 1.54c.387.64.58 1.347.58 2.12 0 .773-.193 1.487-.58 2.14a4.217 4.217 0 01-1.54 1.56 4.24 4.24 0 01-2.14.56c-.72 0-1.393-.167-2.02-.5a4.26 4.26 0 01-1.52-1.4l1.06-.9zm16.794-1.14c0 1.347-.414 2.34-1.24 2.98-.814.627-1.794.94-2.94.94-.72 0-1.4-.127-2.04-.38a3.595 3.595 0 01-1.58-1.28c-.4-.587-.6-1.34-.6-2.26v-6.44c0-1.373.373-2.413 1.12-3.12.76-.707 1.8-1.06 3.12-1.06s2.34.373 3.06 1.12c.733.747 1.1 1.773 1.1 3.08v6.42zm-1.44-6.34c0-.92-.24-1.62-.72-2.1-.467-.48-1.147-.72-2.04-.72-.894 0-1.58.24-2.06.72-.467.467-.7 1.167-.7 2.1v6.22c0 .853.253 1.507.76 1.96.506.44 1.173.66 2 .66.826 0 1.493-.22 2-.66.506-.453.76-1.12.76-2v-6.18zm14.556-4.78l1.1.96L51.697 57l-.98-.98 11.12-13.84zm-8.1 6.04c-.52 0-1-.127-1.44-.38a3.102 3.102 0 01-1.06-1.06 2.84 2.84 0 01-.38-1.44c0-.52.127-1 .38-1.44.267-.44.62-.787 1.06-1.04.44-.267.92-.4 1.44-.4.52 0 1 .133 1.44.4.44.253.787.6 1.04 1.04.267.44.4.92.4 1.44 0 .52-.133 1-.4 1.44-.253.44-.6.793-1.04 1.06-.44.253-.92.38-1.44.38zm1.54-2.88c0-.4-.147-.753-.44-1.06-.28-.307-.647-.46-1.1-.46-.453 0-.82.153-1.1.46-.28.307-.42.66-.42 1.06s.14.753.42 1.06c.28.307.647.46 1.1.46.453 0 .82-.153 1.1-.46.293-.307.44-.66.44-1.06zm4.68 11.88c-.52 0-1-.127-1.44-.38a3.102 3.102 0 01-1.06-1.06 2.84 2.84 0 01-.38-1.44c0-.52.127-1 .38-1.44.267-.44.62-.787 1.06-1.04.44-.267.92-.4 1.44-.4.52 0 1 .133 1.44.4.44.253.787.6 1.04 1.04.267.44.4.92.4 1.44 0 .52-.133 1-.4 1.44-.253.44-.6.793-1.04 1.06-.44.253-.92.38-1.44.38zm1.52-2.88c0-.4-.14-.753-.42-1.06-.28-.307-.647-.46-1.1-.46-.453 0-.82.153-1.1.46-.28.307-.42.66-.42 1.06s.14.753.42 1.06c.28.307.647.46 1.1.46.453 0 .82-.153 1.1-.46.28-.307.42-.66.42-1.06z" fill="#9BA3AE"/></svg>