<svg width="95" height="96" fill="none" xmlns="http://www.w3.org/2000/svg"><circle cx="47.5" cy="48.279" r="40" stroke="#fff" stroke-opacity=".1" stroke-width="15"/><circle cx="47.5" cy="48.279" r="40" stroke="#0E151D" stroke-width="3"/><path fill-rule="evenodd" clip-rule="evenodd" d="M46.5 8.353c0-1.405-1.16-2.543-2.56-2.427C22.134 7.735 5 26.006 5 48.28c0 23.472 19.028 42.5 42.5 42.5S90 71.751 90 48.28c0-13.712-6.494-25.907-16.573-33.678-1.079-.831-2.616-.551-3.404.558-.81 1.141-.519 2.72.583 3.582C79.369 25.606 85 36.285 85 48.28c0 20.711-16.79 37.5-37.5 37.5S10 68.99 10 48.28c0-19.552 14.964-35.609 34.064-37.344 1.351-.123 2.436-1.224 2.436-2.582z" fill="#3BC6CF"/><path d="M35.43 55.62h.78a3.55 3.55 0 001.68-.4 3.12 3.12 0 001.22-1.24c.306-.547.46-1.213.46-2v-1.82c-.733.76-1.667 1.14-2.8 1.14a4.24 4.24 0 01-2.14-.56 4.427 4.427 0 01-1.56-1.54 4.24 4.24 0 01-.56-2.14c0-.773.187-1.487.56-2.14a4.216 4.216 0 011.56-1.54 4.126 4.126 0 012.14-.58c.773 0 1.48.193 2.12.58a4.066 4.066 0 011.54 1.54c.386.653.58 1.367.58 2.14v5.16c0 .733-.16 1.467-.48 2.2-.307.72-.827 1.333-1.56 1.84-.72.493-1.667.74-2.84.74h-.7v-1.38zm1.34-5.74c.506 0 .973-.12 1.4-.36.426-.253.767-.6 1.02-1.04.253-.453.38-.96.38-1.52 0-.493-.127-.947-.38-1.36-.253-.427-.6-.76-1.04-1a2.656 2.656 0 00-1.38-.38c-.52 0-1 .127-1.44.38a2.82 2.82 0 00-1.02 1.04c-.254.44-.38.913-.38 1.42 0 .507.127.98.38 1.42.253.427.593.767 1.02 1.02.44.253.92.38 1.44.38zm5.056 5.78l4.92-7.42c.467-.707.7-1.38.7-2.02 0-.6-.2-1.087-.6-1.46-.4-.373-.88-.56-1.44-.56-.466 0-.88.153-1.24.46-.36.293-.613.673-.76 1.14l-1.3-.6a3.822 3.822 0 011.24-1.72c.574-.453 1.28-.68 2.12-.68.667 0 1.26.147 1.78.44.534.28.947.673 1.24 1.18.294.493.44 1.053.44 1.68 0 .907-.293 1.807-.88 2.7l-4.54 6.86h5.48V57h-7.16v-1.34zm19.368-13.48l1.1.96L51.054 57l-.98-.98 11.12-13.84zm-8.1 6.04c-.52 0-1-.127-1.44-.38a3.102 3.102 0 01-1.06-1.06 2.84 2.84 0 01-.38-1.44c0-.52.127-1 .38-1.44.267-.44.62-.787 1.06-1.04.44-.267.92-.4 1.44-.4.52 0 1 .133 1.44.4.44.253.787.6 1.04 1.04.267.44.4.92.4 1.44 0 .52-.133 1-.4 1.44-.253.44-.6.793-1.04 1.06-.44.253-.92.38-1.44.38zm1.54-2.88c0-.4-.146-.753-.44-1.06-.28-.307-.646-.46-1.1-.46-.453 0-.82.153-1.1.46-.28.307-.42.66-.42 1.06s.14.753.42 1.06c.28.307.647.46 1.1.46.454 0 .82-.153 1.1-.46.294-.307.44-.66.44-1.06zm4.68 11.88c-.52 0-1-.127-1.44-.38a3.102 3.102 0 01-1.06-1.06 2.84 2.84 0 01-.38-1.44c0-.52.127-1 .38-1.44.267-.44.62-.787 1.06-1.04.44-.267.92-.4 1.44-.4.52 0 1 .133 1.44.4.44.253.787.6 1.04 1.04.267.44.4.92.4 1.44 0 .52-.133 1-.4 1.44-.253.44-.6.793-1.04 1.06-.44.253-.92.38-1.44.38zm1.52-2.88c0-.4-.14-.753-.42-1.06-.28-.307-.646-.46-1.1-.46-.453 0-.82.153-1.1.46-.28.307-.42.66-.42 1.06s.14.753.42 1.06c.28.307.647.46 1.1.46.454 0 .82-.153 1.1-.46.28-.307.42-.66.42-1.06z" fill="#9BA3AE"/></svg>