<svg width="70" height="70" fill="none" xmlns="http://www.w3.org/2000/svg"><path d="M30.16 60.45V42.547c0-.617-.5-1.117-1.117-1.117h-7.447a1.117 1.117 0 100 2.234h6.33V60.45a4.848 4.848 0 00-3.724 4.71 4.845 4.845 0 004.84 4.84 4.845 4.845 0 004.841-4.84 4.848 4.848 0 00-3.723-4.71zm-1.117 7.316a2.61 2.61 0 01-2.607-2.607 2.61 2.61 0 012.607-2.606 2.61 2.61 0 012.606 2.606 2.61 2.61 0 01-2.606 2.607zm13.032-7.316V42.547c0-.617-.5-1.117-1.117-1.117H33.51a1.117 1.117 0 100 2.234h6.33V60.45a4.848 4.848 0 00-3.724 4.71 4.845 4.845 0 004.84 4.84c2.67 0 4.84-2.171 4.84-4.84a4.848 4.848 0 00-3.722-4.71zm-1.117 7.316a2.61 2.61 0 01-2.607-2.607 2.61 2.61 0 012.607-2.606 2.61 2.61 0 012.606 2.606 2.61 2.61 0 01-2.606 2.607zm20.106-14.894a4.848 4.848 0 00-4.71 3.724H53.99V42.547c0-.617-.5-1.117-1.117-1.117h-7.447a1.117 1.117 0 100 2.234h6.33v14.049c0 .617.5 1.117 1.117 1.117h3.483a4.848 4.848 0 004.709 3.723 4.845 4.845 0 004.84-4.84c0-2.67-2.171-4.84-4.84-4.84zm0 7.447a2.61 2.61 0 01-2.607-2.606 2.61 2.61 0 012.607-2.607 2.61 2.61 0 012.606 2.607 2.61 2.61 0 01-2.606 2.606z" fill="#EF8B53"/><path d="M67.34 24.062a12.124 12.124 0 00-5.825-3.96A21.004 21.004 0 0055.283 6.13 21.014 21.014 0 0040.395 0a21.166 21.166 0 00-18.03 10.096 9.595 9.595 0 00-2.895-.443c-4.563 0-8.487 3.221-9.433 7.612C4.177 18.785 0 24.125 0 30.249c0 7.397 6.018 13.415 13.415 13.415h2.596v12.932h-2.366a4.848 4.848 0 00-4.709-3.724 4.846 4.846 0 00-4.84 4.84 4.845 4.845 0 004.84 4.841 4.848 4.848 0 004.71-3.723h3.482c.617 0 1.117-.5 1.117-1.117V42.547c0-.617-.5-1.117-1.117-1.117h-3.713c-6.165 0-11.181-5.016-11.181-11.18 0-5.321 3.782-9.933 8.993-10.967.47-.093.829-.475.89-.95.481-3.675 3.642-6.445 7.353-6.445 1.02 0 2.01.204 2.942.607a1.117 1.117 0 001.422-.484 18.933 18.933 0 0116.561-9.777c10.334 0 18.817 8.406 18.91 18.738.005.516.363.962.865 1.078a9.768 9.768 0 017.596 9.562c0 5.414-4.404 9.818-9.818 9.818h-.608a1.117 1.117 0 100 2.234h.608C64.594 43.664 70 38.258 70 31.612c0-2.74-.945-5.421-2.66-7.55zM8.936 60.319a2.61 2.61 0 01-2.606-2.606 2.61 2.61 0 012.606-2.607 2.61 2.61 0 012.607 2.607 2.61 2.61 0 01-2.607 2.606z" fill="#EF8B53"/><path d="M54.465 22.133h.01a1.117 1.117 0 001.107-1.127 15.03 15.03 0 00-1.032-5.352 1.117 1.117 0 00-2.081.813c.569 1.457.865 2.991.879 4.559a1.117 1.117 0 001.117 1.107zm-4.083-9.212a1.114 1.114 0 001.572.15 1.117 1.117 0 00.15-1.573c-2.909-3.521-7.176-5.54-11.709-5.54a1.117 1.117 0 100 2.233c3.864 0 7.504 1.724 9.987 4.73z" fill="#EF8B53"/></svg>