<svg width="175" height="53" viewBox="0 0 175 53" fill="none" xmlns="http://www.w3.org/2000/svg">
<g opacity="0.5">
<path d="M51.9282 18.0689C52.0688 17.2253 53.1995 11.5922 51.5943 11.4526C42.3304 10.6471 36.1198 26.1136 36.6243 33.8497C36.9568 38.9474 39.4946 47.0179 45.9456 46.4961C49.0036 46.2488 52.3182 44.115 54.1563 41.7332C55.893 39.4828 59.6128 32.7495 58.6602 31.3422C58.0606 30.4563 56.6978 42.3261 60.4454 43.3822C64.1931 44.4383 65.6891 41.6966 67.3547 38.96C69.6285 35.224 70.2314 29.0346 66.2781 27.8126C62.1086 26.5239 60.7589 28.4939 59.7777 29.8431" stroke="white" stroke-linecap="round" stroke-linejoin="round"/>
<path d="M71.552 34.6261C80.1133 28.3208 85.4726 1.38142 83.8168 1.02034C78.8018 -0.0733108 71.0329 45.5418 81.5957 38.5C87.2473 34.7323 102.933 1.02034 99.4546 1.02034C90.3869 1.02034 86.5764 37.0245 93.0155 37.0518C99.4546 37.0791 104.79 18.6818 104.79 18.6818C104.79 18.6818 99.2093 34.4012 106.262 34.6261C113.314 34.8509 115.329 22.2897 118.281 16.038C119.018 14.4785 118.371 19.5244 117.975 21.2029C117.146 24.7088 116.361 28.1538 115.951 31.7438C115.883 32.3386 115.597 33.3803 115.583 32.1186C115.514 25.9209 119.848 19.1188 126.008 17.4076C127.628 16.9575 125.8 30.6841 127.096 31.7438C128.909 33.2275 130.067 29.643 131.096 28.5" stroke="white" stroke-linecap="round" stroke-linejoin="round"/>
<path d="M155.566 22.2743C157.722 20.3537 162.789 17.8465 160.833 14.6156C158.878 11.3847 159.736 29.9126 159.736 29.9126C159.736 29.9126 159.736 29.5719 159.736 29.4016C159.736 28.4924 159.88 27.6944 160.145 26.826C161.386 22.758 162.698 19.067 166.332 16.5098C168.756 14.8043 168.921 29.5999 169.875 29.5787C171.842 29.535 172.457 27.0924 173.596 25.9538" stroke="white" stroke-linecap="round" stroke-linejoin="round"/>
<path d="M133.367 25.7184C134.102 24.7896 141.587 13.2289 138.648 14.2576C133.896 15.9207 138.43 23.1726 139.874 25.5549C140.925 27.2886 142.545 33.2304 138.396 31.2649C136.842 30.5291 141.652 27.4993 143.349 25.3709C145.126 23.142 145.386 19.1529 145.386 22.9588C145.386 25.9208 144.976 29.7658 148.827 29.7658C151.748 29.7658 154.233 26.1693 155.008 23.6334C156.908 17.4123 150.968 11.9842 146.981 17.9643" stroke="white" stroke-linecap="round" stroke-linejoin="round"/>
<path d="M107.096 12.75C108.506 9.50972 110.736 5.84857 111.096 2.25" stroke="white" stroke-linecap="round" stroke-linejoin="round"/>
<path d="M17.0994 25.9551C20.5957 21.9996 20.5722 18.0819 17.0994 17.4999C5.59572 15.5722 -2.90429 45 6.59573 49.9997C11.5685 52.6168 16.0079 49.2323 17.8193 47.8018" stroke="white" stroke-linecap="round" stroke-linejoin="round"/>
<path d="M26.5957 44.75C26.5957 46.5842 26.101 49.0922 27.0957 50.75" stroke="white" stroke-linecap="round" stroke-linejoin="round"/>
</g>
</svg>
