<svg width="70" height="70" viewBox="0 0 70 70" fill="none" xmlns="http://www.w3.org/2000/svg">
<path d="M50.3434 0H19.6565C17.2782 0 15.3432 1.93485 15.3432 4.31321V65.6868C15.3432 68.0652 17.278 70 19.6565 70H50.3432C52.7216 70 54.6566 68.0652 54.6566 65.6868V4.31321C54.6566 1.93485 52.7217 0 50.3434 0ZM52.6058 65.6869C52.6058 66.9345 51.5908 67.9494 50.3432 67.9494H19.6565C18.409 67.9494 17.394 66.9343 17.394 65.6869V4.31321C17.394 3.06565 18.409 2.05079 19.6565 2.05079H50.3432C51.5908 2.05079 52.6058 3.06579 52.6058 4.31321V65.6869Z" fill="#3BC6CF"/>
<path d="M49.2475 59.1818H20.7525C20.1861 59.1818 19.7271 59.6407 19.7271 60.2072C19.7271 60.7734 20.1861 61.2326 20.7525 61.2326H49.2475C49.8139 61.2326 50.2729 60.7734 50.2729 60.2072C50.2729 59.6409 49.8139 59.1818 49.2475 59.1818Z" fill="#3BC6CF"/>
<path d="M49.2475 4.38379H20.7525C20.1861 4.38379 19.7271 4.84289 19.7271 5.40918C19.7271 5.97547 20.1861 6.43457 20.7525 6.43457H49.2475C49.8139 6.43457 50.2729 5.97547 50.2729 5.40918C50.2729 4.84289 49.8139 4.38379 49.2475 4.38379Z" fill="#3BC6CF"/>
<path d="M36.0963 63.5656H33.9043C33.3378 63.5656 32.8789 64.0247 32.8789 64.5909C32.8789 65.1572 33.3378 65.6163 33.9043 65.6163H36.0963C36.6627 65.6163 37.1217 65.1572 37.1217 64.5909C37.1217 64.0247 36.6626 63.5656 36.0963 63.5656Z" fill="#3BC6CF"/>
<path d="M46.8721 45.7677L44.8796 23.8484C44.7795 22.7486 43.8713 21.9193 42.767 21.9193H39.3135V20.7528C39.3135 18.3744 37.3785 16.4395 35.0001 16.4395C32.6217 16.4395 30.6868 18.3743 30.6868 20.7527V21.9192H27.2332C26.129 21.9192 25.2207 22.7485 25.1207 23.8485L23.1281 45.7677C23.0741 46.3599 23.2733 46.9512 23.6742 47.3903C24.0752 47.8293 24.646 48.0812 25.2406 48.0812H44.7597C45.3542 48.0812 45.925 47.8293 46.326 47.3903C46.727 46.9512 46.9261 46.3599 46.8721 45.7677ZM35.0001 18.4902C36.2477 18.4902 37.2627 19.5051 37.2627 20.7527V21.9192H32.7375V20.7527C32.7375 19.5051 33.7525 18.4902 35.0001 18.4902ZM44.8116 46.0074C44.7907 46.0304 44.7683 46.0304 44.7597 46.0304H25.2406C25.2319 46.0304 25.2095 46.0304 25.1886 46.0074C25.1675 45.9844 25.1696 45.9619 25.1703 45.9533L27.1628 24.0343C27.1661 23.9977 27.1965 23.9699 27.2332 23.9699H30.6868V26.2325C30.6868 26.7988 31.1457 27.2579 31.7122 27.2579C32.2786 27.2579 32.7375 26.7988 32.7375 26.2325V23.9699H37.2627V26.2325C37.2627 26.7988 37.7216 27.2579 38.2881 27.2579C38.8545 27.2579 39.3135 26.7988 39.3135 26.2325V23.9699H42.767C42.8038 23.9699 42.834 23.9977 42.8374 24.0342L44.8299 45.9533C44.8306 45.9619 44.8328 45.9843 44.8116 46.0074Z" fill="#3BC6CF"/>
</svg>
