<svg width="70" height="70" viewBox="0 0 70 70" fill="none" xmlns="http://www.w3.org/2000/svg">
<path d="M64.873 2.5293H5.12695C2.29988 2.5293 0 4.82918 0 7.65625V52.7734C0 55.6005 2.29988 57.9004 5.12695 57.9004H27.0097L25.7756 62.2199C25.28 63.9546 23.3372 65.4199 21.5332 65.4199H13.8086C13.2423 65.4199 12.7832 65.8789 12.7832 66.4453C12.7832 67.0117 13.2423 67.4707 13.8086 67.4707H56.1914C56.7577 67.4707 57.2168 67.0117 57.2168 66.4453C57.2168 65.8789 56.7577 65.4199 56.1914 65.4199H48.4668C46.6628 65.4199 44.72 63.9544 44.2244 62.2199L42.9903 57.9004H64.873C67.7001 57.9004 70 55.6005 70 52.7734V7.65625C70 4.82918 67.7001 2.5293 64.873 2.5293ZM5.12695 4.58008H64.873C66.5693 4.58008 67.9492 5.96012 67.9492 7.65625V43.5449H2.05078V7.65625C2.05078 5.96012 3.43068 4.58008 5.12695 4.58008ZM42.2525 62.7833C42.5339 63.7684 43.0932 64.6733 43.8264 65.4199H26.1736C26.9068 64.6733 27.4661 63.7682 27.7475 62.7833L29.1426 57.9004H40.8573L42.2525 62.7833ZM64.873 55.8496H5.12695C3.43068 55.8496 2.05078 54.4696 2.05078 52.7734V45.5957H67.9492V52.7734C67.9492 54.4696 66.5693 55.8496 64.873 55.8496Z" fill="#2BD195"/>
<path d="M5.12695 41.4941H64.873C65.4393 41.4941 65.8984 41.0352 65.8984 40.4688V7.65625C65.8984 7.08982 65.4393 6.63086 64.873 6.63086H5.12695C4.56066 6.63086 4.10156 7.08982 4.10156 7.65625V22.0117C4.10156 22.5781 4.56066 23.0371 5.12695 23.0371C5.69324 23.0371 6.15234 22.5781 6.15234 22.0117V8.68164H63.8477V39.4434H6.15234V26.1133C6.15234 25.5469 5.69324 25.0879 5.12695 25.0879C4.56066 25.0879 4.10156 25.5469 4.10156 26.1133V40.4688C4.10156 41.0352 4.56066 41.4941 5.12695 41.4941Z" fill="#2BD195"/>
<path d="M35 47.6465C33.3037 47.6465 31.9238 49.0265 31.9238 50.7227C31.9238 52.4188 33.3037 53.7988 35 53.7988C36.6963 53.7988 38.0762 52.4188 38.0762 50.7227C38.0762 49.0265 36.6963 47.6465 35 47.6465ZM35 51.748C34.4345 51.748 33.9746 51.2881 33.9746 50.7227C33.9746 50.1572 34.4345 49.6973 35 49.6973C35.5655 49.6973 36.0254 50.1572 36.0254 50.7227C36.0254 51.2881 35.5655 51.748 35 51.748Z" fill="#2BD195"/>
</svg>
