<svg width="95" height="96" viewBox="0 0 95 96" fill="none" xmlns="http://www.w3.org/2000/svg">
<circle cx="47.5" cy="48.2793" r="40" stroke="white" stroke-opacity="0.1" stroke-width="15"/>
<circle cx="47.5" cy="48.2793" r="40" stroke="#0E151D" stroke-width="3"/>
<path fill-rule="evenodd" clip-rule="evenodd" d="M46.5003 8.35327C46.5003 6.94779 45.3407 5.81023 43.9401 5.92639C22.1338 7.73478 5 26.0062 5 48.2794C5 71.7515 24.0279 90.7794 47.5 90.7794C70.9721 90.7794 90 71.7515 90 48.2794C90 30.548 79.1414 15.3527 63.7112 8.98062C62.4564 8.46245 61.0493 9.13082 60.5764 10.4033V10.4033C60.0874 11.719 60.7831 13.1717 62.0761 13.7176C75.5464 19.4055 85 32.7385 85 48.2794C85 68.9901 68.2107 85.7794 47.5 85.7794C26.7893 85.7794 10 68.9901 10 48.2794C10 28.7272 24.9636 12.67 44.0636 10.9348C45.4154 10.8119 46.5003 9.7106 46.5003 8.35327V8.35327Z" fill="#2BD195"/>
<path d="M34.756 55.62H35.536C36.1493 55.62 36.7093 55.4867 37.216 55.22C37.7227 54.94 38.1293 54.5267 38.436 53.98C38.7427 53.4333 38.896 52.7667 38.896 51.98V50.16C38.1627 50.92 37.2293 51.3 36.096 51.3C35.3227 51.3 34.6093 51.1133 33.956 50.74C33.3027 50.3533 32.7827 49.84 32.396 49.2C32.0227 48.5467 31.836 47.8333 31.836 47.06C31.836 46.2867 32.0227 45.5733 32.396 44.92C32.7827 44.2667 33.3027 43.7533 33.956 43.38C34.6093 42.9933 35.3227 42.8 36.096 42.8C36.8693 42.8 37.576 42.9933 38.216 43.38C38.8693 43.7533 39.3827 44.2667 39.756 44.92C40.1427 45.5733 40.336 46.2867 40.336 47.06V52.22C40.336 52.9533 40.176 53.6867 39.856 54.42C39.5493 55.14 39.0293 55.7533 38.296 56.26C37.576 56.7533 36.6293 57 35.456 57H34.756V55.62ZM36.096 49.88C36.6027 49.88 37.0693 49.76 37.496 49.52C37.9227 49.2667 38.2627 48.92 38.516 48.48C38.7693 48.0267 38.896 47.52 38.896 46.96C38.896 46.4667 38.7693 46.0133 38.516 45.6C38.2627 45.1733 37.916 44.84 37.476 44.6C37.0493 44.3467 36.5893 44.22 36.096 44.22C35.576 44.22 35.096 44.3467 34.656 44.6C34.2293 44.8533 33.8893 45.2 33.636 45.64C33.3827 46.08 33.256 46.5533 33.256 47.06C33.256 47.5667 33.3827 48.04 33.636 48.48C33.8893 48.9067 34.2293 49.2467 34.656 49.5C35.096 49.7533 35.576 49.88 36.096 49.88ZM47.4124 49.24C48.0924 49.6133 48.6391 50.1333 49.0524 50.8C49.4658 51.4533 49.6724 52.18 49.6724 52.98C49.6724 53.7533 49.4791 54.4667 49.0924 55.12C48.7191 55.7733 48.2058 56.2933 47.5524 56.68C46.8991 57.0533 46.1858 57.24 45.4124 57.24C44.6391 57.24 43.9258 57.0533 43.2724 56.68C42.6191 56.2933 42.0991 55.7733 41.7124 55.12C41.3391 54.4667 41.1524 53.7533 41.1524 52.98C41.1524 52.1667 41.3591 51.4267 41.7724 50.76C42.1858 50.0933 42.7391 49.58 43.4324 49.22C42.9658 48.9 42.5991 48.4933 42.3324 48C42.0658 47.4933 41.9324 46.94 41.9324 46.34C41.9324 45.7 42.0858 45.1133 42.3924 44.58C42.7124 44.0333 43.1391 43.6067 43.6724 43.3C44.2058 42.98 44.7924 42.82 45.4324 42.82C46.0724 42.82 46.6591 42.98 47.1924 43.3C47.7391 43.6067 48.1658 44.0333 48.4724 44.58C48.7924 45.1133 48.9524 45.7 48.9524 46.34C48.9524 46.94 48.8124 47.4933 48.5324 48C48.2658 48.5067 47.8924 48.92 47.4124 49.24ZM45.3324 48.42C45.9458 48.42 46.4658 48.22 46.8924 47.82C47.3191 47.42 47.5324 46.9267 47.5324 46.34C47.5324 45.7533 47.3258 45.2533 46.9124 44.84C46.4991 44.4267 46.0058 44.22 45.4324 44.22C44.8458 44.22 44.3391 44.4267 43.9124 44.84C43.4991 45.2533 43.2924 45.7533 43.2924 46.34C43.2924 46.9133 43.4858 47.4 43.8724 47.8C44.2724 48.1867 44.7591 48.3933 45.3324 48.42ZM45.4124 55.8C45.9191 55.8 46.3858 55.6733 46.8124 55.42C47.2524 55.1667 47.5924 54.8267 47.8324 54.4C48.0858 53.96 48.2124 53.4867 48.2124 52.98C48.2124 52.1933 47.9391 51.5333 47.3924 51C46.8591 50.4533 46.1591 50.1733 45.2924 50.16C44.5324 50.1733 43.8924 50.4533 43.3724 51C42.8524 51.5467 42.5924 52.2067 42.5924 52.98C42.5924 53.4867 42.7191 53.96 42.9724 54.4C43.2258 54.8267 43.5658 55.1667 43.9924 55.42C44.4191 55.6733 44.8924 55.8 45.4124 55.8ZM61.8684 42.18L62.9684 43.14L51.7284 57L50.7484 56.02L61.8684 42.18ZM53.7684 48.22C53.2484 48.22 52.7684 48.0933 52.3284 47.84C51.8884 47.5733 51.535 47.22 51.2684 46.78C51.015 46.34 50.8884 45.86 50.8884 45.34C50.8884 44.82 51.015 44.34 51.2684 43.9C51.535 43.46 51.8884 43.1133 52.3284 42.86C52.7684 42.5933 53.2484 42.46 53.7684 42.46C54.2884 42.46 54.7684 42.5933 55.2084 42.86C55.6484 43.1133 55.995 43.46 56.2484 43.9C56.515 44.34 56.6484 44.82 56.6484 45.34C56.6484 45.86 56.515 46.34 56.2484 46.78C55.995 47.22 55.6484 47.5733 55.2084 47.84C54.7684 48.0933 54.2884 48.22 53.7684 48.22ZM55.3084 45.34C55.3084 44.94 55.1617 44.5867 54.8684 44.28C54.5884 43.9733 54.2217 43.82 53.7684 43.82C53.315 43.82 52.9484 43.9733 52.6684 44.28C52.3884 44.5867 52.2484 44.94 52.2484 45.34C52.2484 45.74 52.3884 46.0933 52.6684 46.4C52.9484 46.7067 53.315 46.86 53.7684 46.86C54.2217 46.86 54.5884 46.7067 54.8684 46.4C55.1617 46.0933 55.3084 45.74 55.3084 45.34ZM59.9884 57.22C59.4684 57.22 58.9884 57.0933 58.5484 56.84C58.1084 56.5733 57.755 56.22 57.4884 55.78C57.235 55.34 57.1084 54.86 57.1084 54.34C57.1084 53.82 57.235 53.34 57.4884 52.9C57.755 52.46 58.1084 52.1133 58.5484 51.86C58.9884 51.5933 59.4684 51.46 59.9884 51.46C60.5084 51.46 60.9884 51.5933 61.4284 51.86C61.8684 52.1133 62.215 52.46 62.4684 52.9C62.735 53.34 62.8684 53.82 62.8684 54.34C62.8684 54.86 62.735 55.34 62.4684 55.78C62.215 56.22 61.8684 56.5733 61.4284 56.84C60.9884 57.0933 60.5084 57.22 59.9884 57.22ZM61.5084 54.34C61.5084 53.94 61.3684 53.5867 61.0884 53.28C60.8084 52.9733 60.4417 52.82 59.9884 52.82C59.535 52.82 59.1684 52.9733 58.8884 53.28C58.6084 53.5867 58.4684 53.94 58.4684 54.34C58.4684 54.74 58.6084 55.0933 58.8884 55.4C59.1684 55.7067 59.535 55.86 59.9884 55.86C60.4417 55.86 60.8084 55.7067 61.0884 55.4C61.3684 55.0933 61.5084 54.74 61.5084 54.34Z" fill="#9BA3AE"/>
</svg>
