<svg width="95" height="96" viewBox="0 0 95 96" fill="none" xmlns="http://www.w3.org/2000/svg">
<circle cx="47.5" cy="48.2793" r="40" stroke="white" stroke-opacity="0.1" stroke-width="15"/>
<circle cx="47.5" cy="48.2793" r="40" stroke="#0E151D" stroke-width="3"/>
<path fill-rule="evenodd" clip-rule="evenodd" d="M46.5003 8.35327C46.5003 6.94779 45.3407 5.81023 43.9401 5.92639C22.1338 7.73478 5 26.0062 5 48.2794C5 70.5526 22.1338 88.824 43.9401 90.6324C45.3407 90.7486 46.5003 89.611 46.5003 88.2055V88.2055C46.5003 86.8482 45.4153 85.7469 44.0636 85.6241C24.9636 83.8888 10 67.8316 10 48.2794C10 28.7272 24.9636 12.67 44.0636 10.9348C45.4154 10.8119 46.5003 9.7106 46.5003 8.35327V8.35327Z" fill="white"/>
<path d="M31.9273 54.44C32.5539 55.3467 33.3806 55.8 34.4073 55.8C34.9539 55.8 35.4406 55.6733 35.8673 55.42C36.2939 55.1667 36.6206 54.8267 36.8473 54.4C37.0873 53.96 37.2073 53.4867 37.2073 52.98C37.2073 52.4467 37.0739 51.9667 36.8073 51.54C36.5406 51.1 36.1739 50.76 35.7073 50.52C35.2406 50.2667 34.7206 50.14 34.1473 50.14H31.4673L32.2273 43H37.5473V44.44H33.5473L33.0873 48.74H34.4073C35.1806 48.74 35.8939 48.9333 36.5473 49.32C37.2006 49.6933 37.7139 50.2067 38.0873 50.86C38.4739 51.5 38.6673 52.2067 38.6673 52.98C38.6673 53.7533 38.4739 54.4667 38.0873 55.12C37.7139 55.7733 37.2006 56.2933 36.5473 56.68C35.8939 57.0533 35.1806 57.24 34.4073 57.24C33.6873 57.24 33.0139 57.0733 32.3873 56.74C31.7606 56.3933 31.2539 55.9267 30.8673 55.34L31.9273 54.44ZM48.7205 53.3C48.7205 54.6467 48.3072 55.64 47.4805 56.28C46.6672 56.9067 45.6872 57.22 44.5405 57.22C43.8205 57.22 43.1405 57.0933 42.5005 56.84C41.8605 56.5733 41.3339 56.1467 40.9205 55.56C40.5205 54.9733 40.3205 54.22 40.3205 53.3V46.86C40.3205 45.4867 40.6939 44.4467 41.4405 43.74C42.2005 43.0333 43.2405 42.68 44.5605 42.68C45.8805 42.68 46.9005 43.0533 47.6205 43.8C48.3539 44.5467 48.7205 45.5733 48.7205 46.88V53.3ZM47.2805 46.96C47.2805 46.04 47.0405 45.34 46.5605 44.86C46.0939 44.38 45.4139 44.14 44.5205 44.14C43.6272 44.14 42.9405 44.38 42.4605 44.86C41.9939 45.3267 41.7605 46.0267 41.7605 46.96V53.18C41.7605 54.0333 42.0139 54.6867 42.5205 55.14C43.0272 55.58 43.6939 55.8 44.5205 55.8C45.3472 55.8 46.0139 55.58 46.5205 55.14C47.0272 54.6867 47.2805 54.02 47.2805 53.14V46.96ZM61.8371 42.18L62.9371 43.14L51.6971 57L50.7171 56.02L61.8371 42.18ZM53.7371 48.22C53.2171 48.22 52.7371 48.0933 52.2971 47.84C51.8571 47.5733 51.5038 47.22 51.2371 46.78C50.9838 46.34 50.8571 45.86 50.8571 45.34C50.8571 44.82 50.9838 44.34 51.2371 43.9C51.5038 43.46 51.8571 43.1133 52.2971 42.86C52.7371 42.5933 53.2171 42.46 53.7371 42.46C54.2571 42.46 54.7371 42.5933 55.1771 42.86C55.6171 43.1133 55.9638 43.46 56.2171 43.9C56.4838 44.34 56.6171 44.82 56.6171 45.34C56.6171 45.86 56.4838 46.34 56.2171 46.78C55.9638 47.22 55.6171 47.5733 55.1771 47.84C54.7371 48.0933 54.2571 48.22 53.7371 48.22ZM55.2771 45.34C55.2771 44.94 55.1304 44.5867 54.8371 44.28C54.5571 43.9733 54.1904 43.82 53.7371 43.82C53.2838 43.82 52.9171 43.9733 52.6371 44.28C52.3571 44.5867 52.2171 44.94 52.2171 45.34C52.2171 45.74 52.3571 46.0933 52.6371 46.4C52.9171 46.7067 53.2838 46.86 53.7371 46.86C54.1904 46.86 54.5571 46.7067 54.8371 46.4C55.1304 46.0933 55.2771 45.74 55.2771 45.34ZM59.9571 57.22C59.4371 57.22 58.9571 57.0933 58.5171 56.84C58.0771 56.5733 57.7238 56.22 57.4571 55.78C57.2038 55.34 57.0771 54.86 57.0771 54.34C57.0771 53.82 57.2038 53.34 57.4571 52.9C57.7238 52.46 58.0771 52.1133 58.5171 51.86C58.9571 51.5933 59.4371 51.46 59.9571 51.46C60.4771 51.46 60.9571 51.5933 61.3971 51.86C61.8371 52.1133 62.1838 52.46 62.4371 52.9C62.7038 53.34 62.8371 53.82 62.8371 54.34C62.8371 54.86 62.7038 55.34 62.4371 55.78C62.1838 56.22 61.8371 56.5733 61.3971 56.84C60.9571 57.0933 60.4771 57.22 59.9571 57.22ZM61.4771 54.34C61.4771 53.94 61.3371 53.5867 61.0571 53.28C60.7771 52.9733 60.4104 52.82 59.9571 52.82C59.5038 52.82 59.1371 52.9733 58.8571 53.28C58.5771 53.5867 58.4371 53.94 58.4371 54.34C58.4371 54.74 58.5771 55.0933 58.8571 55.4C59.1371 55.7067 59.5038 55.86 59.9571 55.86C60.4104 55.86 60.7771 55.7067 61.0571 55.4C61.3371 55.0933 61.4771 54.74 61.4771 54.34Z" fill="#9BA3AE"/>
</svg>
