<svg width="95" height="96" viewBox="0 0 95 96" fill="none" xmlns="http://www.w3.org/2000/svg">
<circle cx="47.5" cy="48.2793" r="40" stroke="white" stroke-opacity="0.1" stroke-width="15"/>
<circle cx="47.5" cy="48.2793" r="40" stroke="#0E151D" stroke-width="3"/>
<path fill-rule="evenodd" clip-rule="evenodd" d="M46.5003 8.35327C46.5003 6.94779 45.3407 5.81023 43.9401 5.92639C22.1338 7.73478 5 26.0062 5 48.2794C5 71.7515 24.0279 90.7794 47.5 90.7794C70.9721 90.7794 90 71.7515 90 48.2794C90 34.5674 83.5064 22.3721 73.4266 14.6009C72.3485 13.7698 70.8114 14.0496 70.0231 15.1594C69.2128 16.3004 69.504 17.8783 70.6057 18.7413C79.3687 25.6057 85 36.2849 85 48.2794C85 68.9901 68.2107 85.7794 47.5 85.7794C26.7893 85.7794 10 68.9901 10 48.2794C10 28.7272 24.9636 12.67 44.0636 10.9348C45.4154 10.8119 46.5003 9.7106 46.5003 8.35327Z" fill="#3BC6CF"/>
<path d="M35.4298 55.62H36.2098C36.8232 55.62 37.3832 55.4867 37.8898 55.22C38.3965 54.94 38.8032 54.5267 39.1098 53.98C39.4165 53.4333 39.5698 52.7667 39.5698 51.98V50.16C38.8365 50.92 37.9032 51.3 36.7698 51.3C35.9965 51.3 35.2832 51.1133 34.6298 50.74C33.9765 50.3533 33.4565 49.84 33.0698 49.2C32.6965 48.5467 32.5098 47.8333 32.5098 47.06C32.5098 46.2867 32.6965 45.5733 33.0698 44.92C33.4565 44.2667 33.9765 43.7533 34.6298 43.38C35.2832 42.9933 35.9965 42.8 36.7698 42.8C37.5432 42.8 38.2498 42.9933 38.8898 43.38C39.5432 43.7533 40.0565 44.2667 40.4298 44.92C40.8165 45.5733 41.0098 46.2867 41.0098 47.06V52.22C41.0098 52.9533 40.8498 53.6867 40.5298 54.42C40.2232 55.14 39.7032 55.7533 38.9698 56.26C38.2498 56.7533 37.3032 57 36.1298 57H35.4298V55.62ZM36.7698 49.88C37.2765 49.88 37.7432 49.76 38.1698 49.52C38.5965 49.2667 38.9365 48.92 39.1898 48.48C39.4432 48.0267 39.5698 47.52 39.5698 46.96C39.5698 46.4667 39.4432 46.0133 39.1898 45.6C38.9365 45.1733 38.5898 44.84 38.1498 44.6C37.7232 44.3467 37.2632 44.22 36.7698 44.22C36.2498 44.22 35.7698 44.3467 35.3298 44.6C34.9032 44.8533 34.5632 45.2 34.3098 45.64C34.0565 46.08 33.9298 46.5533 33.9298 47.06C33.9298 47.5667 34.0565 48.04 34.3098 48.48C34.5632 48.9067 34.9032 49.2467 35.3298 49.5C35.7698 49.7533 36.2498 49.88 36.7698 49.88ZM41.8263 55.66L46.7463 48.24C47.2129 47.5333 47.4463 46.86 47.4463 46.22C47.4463 45.62 47.2463 45.1333 46.8463 44.76C46.4463 44.3867 45.9663 44.2 45.4063 44.2C44.9396 44.2 44.5263 44.3533 44.1663 44.66C43.8063 44.9533 43.5529 45.3333 43.4063 45.8L42.1063 45.2C42.3596 44.5067 42.7729 43.9333 43.3463 43.48C43.9196 43.0267 44.6263 42.8 45.4663 42.8C46.1329 42.8 46.7263 42.9467 47.2463 43.24C47.7796 43.52 48.1929 43.9133 48.4863 44.42C48.7796 44.9133 48.9263 45.4733 48.9263 46.1C48.9263 47.0067 48.6329 47.9067 48.0463 48.8L43.5063 55.66H48.9863V57H41.8263V55.66ZM61.1945 42.18L62.2945 43.14L51.0545 57L50.0745 56.02L61.1945 42.18ZM53.0945 48.22C52.5745 48.22 52.0945 48.0933 51.6545 47.84C51.2145 47.5733 50.8612 47.22 50.5945 46.78C50.3412 46.34 50.2145 45.86 50.2145 45.34C50.2145 44.82 50.3412 44.34 50.5945 43.9C50.8612 43.46 51.2145 43.1133 51.6545 42.86C52.0945 42.5933 52.5745 42.46 53.0945 42.46C53.6145 42.46 54.0945 42.5933 54.5345 42.86C54.9745 43.1133 55.3212 43.46 55.5745 43.9C55.8412 44.34 55.9745 44.82 55.9745 45.34C55.9745 45.86 55.8412 46.34 55.5745 46.78C55.3212 47.22 54.9745 47.5733 54.5345 47.84C54.0945 48.0933 53.6145 48.22 53.0945 48.22ZM54.6345 45.34C54.6345 44.94 54.4879 44.5867 54.1945 44.28C53.9145 43.9733 53.5479 43.82 53.0945 43.82C52.6412 43.82 52.2745 43.9733 51.9945 44.28C51.7145 44.5867 51.5745 44.94 51.5745 45.34C51.5745 45.74 51.7145 46.0933 51.9945 46.4C52.2745 46.7067 52.6412 46.86 53.0945 46.86C53.5479 46.86 53.9145 46.7067 54.1945 46.4C54.4879 46.0933 54.6345 45.74 54.6345 45.34ZM59.3145 57.22C58.7945 57.22 58.3145 57.0933 57.8745 56.84C57.4345 56.5733 57.0812 56.22 56.8145 55.78C56.5612 55.34 56.4345 54.86 56.4345 54.34C56.4345 53.82 56.5612 53.34 56.8145 52.9C57.0812 52.46 57.4345 52.1133 57.8745 51.86C58.3145 51.5933 58.7945 51.46 59.3145 51.46C59.8345 51.46 60.3145 51.5933 60.7545 51.86C61.1945 52.1133 61.5412 52.46 61.7945 52.9C62.0612 53.34 62.1945 53.82 62.1945 54.34C62.1945 54.86 62.0612 55.34 61.7945 55.78C61.5412 56.22 61.1945 56.5733 60.7545 56.84C60.3145 57.0933 59.8345 57.22 59.3145 57.22ZM60.8345 54.34C60.8345 53.94 60.6945 53.5867 60.4145 53.28C60.1345 52.9733 59.7679 52.82 59.3145 52.82C58.8612 52.82 58.4945 52.9733 58.2145 53.28C57.9345 53.5867 57.7945 53.94 57.7945 54.34C57.7945 54.74 57.9345 55.0933 58.2145 55.4C58.4945 55.7067 58.8612 55.86 59.3145 55.86C59.7679 55.86 60.1345 55.7067 60.4145 55.4C60.6945 55.0933 60.8345 54.74 60.8345 54.34Z" fill="#9BA3AE"/>
</svg>
