<svg width="70" height="70" viewBox="0 0 70 70" fill="none" xmlns="http://www.w3.org/2000/svg">
<path d="M30.1596 60.4505V42.5472C30.1596 41.9302 29.6596 41.4302 29.0426 41.4302H21.5958C20.9787 41.4302 20.4788 41.9302 20.4788 42.5472C20.4788 43.1642 20.9787 43.6642 21.5958 43.6642H27.9256V60.4505C25.7935 60.9563 24.2022 62.8749 24.2022 65.1594C24.2022 67.8285 26.3735 69.9999 29.0426 69.9999C31.7117 69.9999 33.883 67.8285 33.883 65.1594C33.883 62.8749 32.2916 60.9563 30.1596 60.4505ZM29.0426 67.7658C27.6055 67.7658 26.4362 66.5965 26.4362 65.1594C26.4362 63.7224 27.6055 62.5531 29.0426 62.5531C30.4797 62.5531 31.649 63.7224 31.649 65.1594C31.649 66.5965 30.4797 67.7658 29.0426 67.7658Z" fill="#EF8B53"/>
<path d="M42.0745 60.4505V42.5472C42.0745 41.9302 41.5745 41.4302 40.9575 41.4302H33.5108C32.8938 41.4302 32.3938 41.9302 32.3938 42.5472C32.3938 43.1642 32.8938 43.6642 33.5108 43.6642H39.8405V60.4505C37.7084 60.9563 36.1171 62.8749 36.1171 65.1594C36.1171 67.8285 38.2884 69.9999 40.9575 69.9999C43.6266 69.9999 45.7979 67.8285 45.7979 65.1594C45.7979 62.8749 44.2065 60.9563 42.0745 60.4505ZM40.9575 67.7658C39.5204 67.7658 38.3511 66.5965 38.3511 65.1594C38.3511 63.7224 39.5204 62.5531 40.9575 62.5531C42.3946 62.5531 43.5639 63.7224 43.5639 65.1594C43.5639 66.5965 42.3946 67.7658 40.9575 67.7658Z" fill="#EF8B53"/>
<path d="M61.0638 52.8722C58.7793 52.8722 56.8607 54.4636 56.3549 56.5956H53.9893V42.5472C53.9893 41.9302 53.4893 41.4302 52.8723 41.4302H45.4255C44.8085 41.4302 44.3085 41.9302 44.3085 42.5472C44.3085 43.1642 44.8085 43.6642 45.4255 43.6642H51.7553V57.7126C51.7553 58.3297 52.2553 58.8296 52.8723 58.8296H56.3549C56.8607 60.9617 58.7793 62.5531 61.0638 62.5531C63.7329 62.5531 65.9042 60.3817 65.9042 57.7126C65.9042 55.0435 63.7329 52.8722 61.0638 52.8722ZM61.0638 60.319C59.6267 60.319 58.4574 59.1497 58.4574 57.7126C58.4574 56.2755 59.6267 55.1062 61.0638 55.1062C62.5009 55.1062 63.6702 56.2755 63.6702 57.7126C63.6702 59.1497 62.5009 60.319 61.0638 60.319Z" fill="#EF8B53"/>
<path d="M67.3401 24.0617C65.8347 22.1925 63.79 20.8077 61.5148 20.1012C61.2586 14.8135 59.0648 9.87998 55.2833 6.13006C51.2969 2.177 46.0097 0 40.3954 0C33.0229 0 26.2009 3.84434 22.3643 10.0959C21.4313 9.80179 20.4616 9.6533 19.4698 9.6533C14.9069 9.6533 10.983 12.8742 10.0368 17.2647C4.17677 18.7849 0 24.1259 0 30.2491C0 37.6463 6.01791 43.6644 13.4151 43.6644H16.0106V56.5957H13.6451C13.1393 54.4637 11.2207 52.8723 8.93617 52.8723C6.26709 52.8723 4.09574 55.0437 4.09574 57.7128C4.09574 60.3819 6.26709 62.5532 8.93617 62.5532C11.2207 62.5532 13.1393 60.9618 13.6451 58.8298H17.1277C17.7447 58.8298 18.2447 58.3298 18.2447 57.7128V42.5473C18.2447 41.9303 17.7447 41.4303 17.1277 41.4303H13.4151C7.24991 41.4303 2.23404 36.4144 2.23404 30.2491C2.23404 24.9286 6.01628 20.3168 11.2273 19.2834C11.6971 19.1903 12.0555 18.8078 12.1176 18.3327C12.5985 14.6583 15.7592 11.8875 19.4698 11.8875C20.4906 11.8875 21.4806 12.092 22.4122 12.4951C22.9403 12.7238 23.5553 12.5138 23.8335 12.0105C27.1673 5.98008 33.5135 2.23404 40.3954 2.23404C50.7291 2.23404 59.212 10.6397 59.3052 20.972C59.3098 21.4882 59.6676 21.9338 60.1704 22.0501C64.6426 23.0851 67.7661 27.0173 67.7661 31.6123C67.7661 37.026 63.3619 41.4303 57.9482 41.4303H57.3404C56.7234 41.4303 56.2234 41.9303 56.2234 42.5473C56.2234 43.1644 56.7234 43.6644 57.3404 43.6644H57.9481C64.5935 43.6644 70 38.2578 70 31.6123C70 28.8726 69.0553 26.191 67.3401 24.0617ZM8.93617 60.3191C7.49908 60.3191 6.32979 59.1498 6.32979 57.7128C6.32979 56.2757 7.49908 55.1064 8.93617 55.1064C10.3733 55.1064 11.5426 56.2757 11.5426 57.7128C11.5426 59.1498 10.3733 60.3191 8.93617 60.3191Z" fill="#EF8B53"/>
<path d="M54.4648 22.1329H54.4751C55.092 22.1272 55.5875 21.6226 55.5819 21.0057C55.5653 19.1658 55.2179 17.3653 54.5497 15.6543C54.3251 15.0797 53.6775 14.7957 53.1028 15.0201C52.5281 15.2446 52.2442 15.8923 52.4686 16.467C53.0379 17.9242 53.3336 19.4581 53.3478 21.026C53.3536 21.6396 53.8525 22.1329 54.4648 22.1329Z" fill="#EF8B53"/>
<path d="M50.3818 12.9211C50.6027 13.1886 50.9219 13.3268 51.2436 13.3268C51.4942 13.3268 51.7462 13.243 51.9543 13.0709C52.4298 12.6781 52.497 11.974 52.1041 11.4983C49.1954 7.97703 44.9276 5.95746 40.3955 5.95746C39.7784 5.95746 39.2784 6.45744 39.2784 7.07448C39.2784 7.69152 39.7784 8.1915 40.3955 8.1915C44.2589 8.1915 47.8987 9.91529 50.3818 12.9211Z" fill="#EF8B53"/>
</svg>
